<svg id="Layer_1" data-name="Layer 1" xmlns="http://www.w3.org/2000/svg" viewBox="0 0 413.2435 236.6678"><defs><style>.cls-1{fill:none;}.cls-2{fill:#eec41b;}.cls-3{fill:#feda00;}</style></defs><circle class="cls-1" cx="118.8993" cy="120.0496" r="94.648"/><line class="cls-2" x1="119.0712" y1="22.9743" x2="119.0712"/><polygon class="cls-3" points="118.321 22.974 119.071 0 119.821 22.974 118.321 22.974 118.321 22.974"/><line class="cls-2" x1="121.7078" y1="23.1462" x2="121.8797" y2="9.1915"/><polygon class="cls-3" points="120.958 23.137 121.88 9.191 122.458 23.155 120.958 23.137 120.958 23.137"/><line class="cls-2" x1="105.7916" y1="23.8949" x2="103.7273" y2="1.0135"/><polygon class="cls-3" points="105.045 23.962 103.727 1.013 106.539 23.827 105.045 23.962 105.045 23.962"/><line class="cls-2" x1="108.4169" y1="23.8144" x2="107.3503" y2="9.9154"/><polygon class="cls-3" points="107.669 23.872 107.35 9.915 109.165 23.757 107.669 23.872 107.669 23.872"/><line class="cls-2" x1="92.4505" y1="26.6566" x2="87.2995" y2="4.2671"/><polygon class="cls-3" points="91.72 26.825 87.3 4.267 93.181 26.488 91.72 26.825 91.72 26.825"/><line class="cls-2" x1="95.0157" y1="26.1988" x2="92.0973" y2="12.5949"/><polygon class="cls-3" points="94.282 26.356 92.097 12.595 95.749 26.041 94.282 26.356 94.282 26.356"/><line class="cls-2" x1="79.5065" y1="31.2282" x2="69.9546" y2="10.2413"/><polygon class="cls-3" points="78.824 31.539 69.955 10.241 80.189 30.918 78.824 31.539 78.824 31.539"/><line class="cls-2" x1="81.7772" y1="30.3401" x2="76.1155" y2="17.6808"/><polygon class="cls-3" points="81.093 30.646 76.116 17.681 82.462 30.034 81.093 30.646 81.093 30.646"/><line class="cls-2" x1="68.0714" y1="37.6921" x2="56.6884" y2="17.6631"/><polygon class="cls-3" points="67.419 38.063 56.688 17.663 68.723 37.322 67.419 38.063 67.419 38.063"/><line class="cls-2" x1="70.6707" y1="36.1077" x2="63.7387" y2="24.1949"/><polygon class="cls-3" points="70.022 36.485 63.739 24.195 71.319 35.73 70.022 36.485 70.022 36.485"/><line class="cls-2" x1="57.153" y1="45.8408" x2="43.1817" y2="27.564"/><polygon class="cls-3" points="56.557 46.296 43.182 27.564 57.749 45.385 56.557 46.296 56.557 46.296"/><line class="cls-2" x1="59.5382" y1="43.94" x2="51.0534" y2="33.0784"/><polygon class="cls-3" points="58.947 44.402 51.053 33.078 60.129 43.478 58.947 44.402 58.947 44.402"/><line class="cls-2" x1="48.1887" y1="54.7842" x2="31.6491" y2="38.847"/><polygon class="cls-3" points="47.668 55.324 31.649 38.847 48.709 54.244 47.668 55.324 47.668 55.324"/><line class="cls-2" x1="50.116" y1="52.7413" x2="40.2622" y2="43.1114"/><polygon class="cls-3" points="49.592 53.278 40.262 43.111 50.64 52.205 49.592 53.278 49.592 53.278"/><line class="cls-2" x1="39.7072" y1="64.9461" x2="21.7015" y2="50.7244"/><polygon class="cls-3" points="39.242 65.535 21.702 50.724 40.172 64.357 39.242 65.535 39.242 65.535"/><line class="cls-2" x1="41.5966" y1="62.552" x2="30.6915" y2="54.1233"/><polygon class="cls-3" points="41.138 63.145 30.691 54.123 42.055 61.959 41.138 63.145 41.138 63.145"/><line class="cls-2" x1="31.7179" y1="77.9701" x2="11.4801" y2="67.2501"/><polygon class="cls-3" points="31.367 78.633 11.48 67.25 32.069 77.307 31.367 78.633 31.367 78.633"/><line class="cls-2" x1="33.0074" y1="75.4751" x2="20.935" y2="68.9751"/><polygon class="cls-3" points="32.652 76.135 20.935 68.975 33.363 74.815 32.652 76.135 32.652 76.135"/><line class="cls-2" x1="27.0895" y1="91.8066" x2="4.9873" y2="85.5364"/><polygon class="cls-3" points="26.885 92.528 4.987 85.536 27.294 91.085 26.885 92.528 26.885 92.528"/><line class="cls-2" x1="27.6841" y1="89.2766" x2="14.5964" y2="85.3431"/><polygon class="cls-3" points="27.468 89.995 14.596 85.343 27.9 88.558 27.468 89.995 27.468 89.995"/><line class="cls-2" x1="23.1019" y1="106.6613" x2="0.2064" y2="104.7601"/><polygon class="cls-3" points="23.04 107.409 0.206 104.76 23.164 105.914 23.04 107.409 23.04 107.409"/><line class="cls-2" x1="23.1625" y1="104.0343" x2="9.5988" y2="102.7219"/><polygon class="cls-3" points="23.09 104.781 9.599 102.722 23.235 103.288 23.09 104.781 23.09 104.781"/><line class="cls-2" x1="22.9602" y1="122.7739" y2="123.579"/><polygon class="cls-3" points="22.986 123.523 0 123.579 22.934 122.024 22.986 123.523 22.986 123.523"/><line class="cls-2" x1="22.6899" y1="120.1391" x2="9.0874" y2="120.4501"/><polygon class="cls-3" points="22.707 120.889 9.087 120.45 22.673 119.389 22.707 120.889 22.707 120.889"/><line class="cls-2" x1="23.746" y1="138.3952" x2="1.2633" y2="143.1227"/><polygon class="cls-3" points="23.9 139.129 1.263 143.123 23.592 137.661 23.9 139.129 23.9 139.129"/><line class="cls-2" x1="22.9962" y1="135.8187" x2="9.6802" y2="138.4829"/><polygon class="cls-3" points="23.143 136.554 9.68 138.483 22.849 135.083 23.143 136.554 23.143 136.554"/><line class="cls-2" x1="28.9731" y1="156.2729" x2="8.1183" y2="165.3582"/><polygon class="cls-3" points="29.273 156.961 8.118 165.358 28.674 155.585 29.273 156.961 29.273 156.961"/><line class="cls-2" x1="27.8414" y1="153.7025" x2="15.3989" y2="159.0842"/><polygon class="cls-3" points="28.139 154.391 15.399 159.084 27.544 153.014 28.139 154.391 28.139 154.391"/><line class="cls-2" x1="36.9537" y1="170.6958" x2="17.2252" y2="182.4688"/><polygon class="cls-3" points="37.338 171.34 17.225 182.469 36.569 170.052 37.338 171.34 37.338 171.34"/><line class="cls-2" x1="35.5145" y1="168.2841" x2="23.6789" y2="175.347"/><polygon class="cls-3" points="35.899 168.928 23.679 175.347 35.13 167.64 35.899 168.928 35.899 168.928"/><line class="cls-2" x1="47.8725" y1="185.6162" x2="30.3221" y2="200.0642"/><polygon class="cls-3" points="48.349 186.195 30.322 200.064 47.396 185.037 48.349 186.195 48.349 186.195"/><line class="cls-2" x1="46.2572" y1="183.2779" x2="35.6252" y2="192.0486"/><polygon class="cls-3" points="46.734 183.856 35.625 192.049 45.78 182.699 46.734 183.856 46.734 183.856"/><line class="cls-2" x1="60.5087" y1="197.0101" x2="46.3566" y2="215.1081"/><polygon class="cls-3" points="61.099 197.472 46.357 215.108 59.918 196.548 61.099 197.472 61.099 197.472"/><line class="cls-2" x1="58.2962" y1="195.28" x2="49.8061" y2="206.1375"/><polygon class="cls-3" points="58.887 195.742 49.806 206.137 57.705 194.818 58.887 195.742 58.887 195.742"/><line class="cls-2" x1="77.8787" y1="207.6803" x2="65.7572" y2="227.1967"/><polygon class="cls-3" points="78.516 208.076 65.757 227.197 77.242 207.285 78.516 208.076 78.516 208.076"/><line class="cls-2" x1="75.6648" y1="206.0266" x2="68.3928" y2="217.735"/><polygon class="cls-3" points="76.302 206.422 68.393 217.735 75.028 205.631 76.302 206.422 76.302 206.422"/><line class="cls-2" x1="97.0876" y1="214.7699" x2="90.1375" y2="236.6678"/><polygon class="cls-3" points="97.802 214.997 90.138 236.668 96.373 214.543 97.802 214.997 97.802 214.997"/><line class="cls-2" x1="94.4107" y1="213.9203" x2="90.2412" y2="227.0574"/><polygon class="cls-3" points="95.126 214.147 90.241 227.057 93.696 213.693 95.126 214.147 95.126 214.147"/><line class="cls-2" x1="133.3885" y1="23.962" x2="137.0914" y2="1.2881"/><polygon class="cls-3" points="132.648 23.841 137.091 1.288 134.129 24.083 132.648 23.841 132.648 23.841"/><line class="cls-2" x1="136.1602" y1="24.4147" x2="138.3817" y2="10.8121"/><polygon class="cls-3" points="135.42 24.294 138.382 10.812 136.9 24.536 135.42 24.294 135.42 24.294"/><line class="cls-2" x1="148.2666" y1="27.2314" x2="155.537" y2="5.4378"/><polygon class="cls-3" points="147.555 26.994 155.537 5.438 148.978 27.469 147.555 26.994 147.555 26.994"/><line class="cls-2" x1="150.9307" y1="28.1202" x2="155.2925" y2="15.0457"/><polygon class="cls-3" points="150.219 27.883 155.292 15.046 151.642 28.357 150.219 27.883 150.219 27.883"/><line class="cls-2" x1="163.3296" y1="33.7023" x2="174.0417" y2="13.3781"/><polygon class="cls-3" points="162.666 33.353 174.042 13.378 163.993 34.052 162.666 33.353 162.666 33.353"/><line class="cls-2" x1="165.8142" y1="35.0118" x2="172.2406" y2="22.8188"/><polygon class="cls-3" points="165.151 34.662 172.241 22.819 166.478 35.361 165.151 34.662 165.151 34.662"/><line class="cls-2" x1="176.2731" y1="41.532" x2="191.16" y2="23.2799"/><polygon class="cls-3" points="175.692 41.058 191.16 23.28 176.854 42.006 175.692 41.058 175.692 41.058"/><line class="cls-2" x1="178.4495" y1="43.3071" x2="187.3805" y2="32.3573"/><polygon class="cls-3" points="177.868 42.833 187.38 32.357 179.031 43.781 177.868 42.833 177.868 42.833"/><path class="cls-2" d="M127.9009,205.6421v9.47h11.6767v6.0069H127.9009V231.13h13.167v6.1689H120.9443V199.4727h20.1236v6.1694Z" transform="translate(-12.9284 -123.0605)"/><path class="cls-2" d="M147.2539,214.1377a12.9383,12.9383,0,0,1,4.5215-5.4111,11.3017,11.3017,0,0,1,6.3848-1.8941,10.4785,10.4785,0,0,1,5.3911,1.3526,11.2575,11.2575,0,0,1,3.7021,3.4091v-4.2749h7.0059v29.98h-7.0059v-4.3833a10.6558,10.6558,0,0,1-9.1426,4.87,10.9972,10.9972,0,0,1-6.3354-1.9477,13.2962,13.2962,0,0,1-4.5215-5.4927,18.9418,18.9418,0,0,1-1.6645-8.1445A18.6326,18.6326,0,0,1,147.2539,214.1377Zm19.0054,3.4365a7.3874,7.3874,0,0,0-2.6831-3.03,6.7246,6.7246,0,0,0-3.627-1.0556,6.6086,6.6086,0,0,0-3.5776,1.0283,7.4864,7.4864,0,0,0-2.6582,3.0034,10.0907,10.0907,0,0,0-1.0186,4.6807,10.4241,10.4241,0,0,0,1.0186,4.7353,7.74,7.74,0,0,0,2.6831,3.1114,6.3969,6.3969,0,0,0,3.5527,1.0825,6.7284,6.7284,0,0,0,3.627-1.0552,7.3851,7.3851,0,0,0,2.6831-3.0308,11.773,11.773,0,0,0,0-9.47Z" transform="translate(-12.9284 -123.0605)"/><path class="cls-2" d="M185.5381,236.46a10.8972,10.8972,0,0,1-4.2485-3.5987,9.6215,9.6215,0,0,1-1.7139-5.0327h7.0058a4.2325,4.2325,0,0,0,1.565,2.8682,5.1413,5.1413,0,0,0,3.4038,1.1367,4.9607,4.9607,0,0,0,3.1055-.8662,2.6856,2.6856,0,0,0,1.1176-2.2188,2.35,2.35,0,0,0-1.3662-2.1914,24.356,24.356,0,0,0-4.3476-1.5962,34.6453,34.6453,0,0,1-5.0435-1.6777,8.81,8.81,0,0,1-3.3784-2.6519,7.5363,7.5363,0,0,1-1.416-4.8159,8.2567,8.2567,0,0,1,1.3164-4.5454,9.0144,9.0144,0,0,1,3.7764-3.2471,13.1623,13.1623,0,0,1,5.7885-1.19,11.1875,11.1875,0,0,1,7.8506,2.6787,10.2717,10.2717,0,0,1,3.23,7.2242h-6.6582a4.0412,4.0412,0,0,0-1.3667-2.8409,5.727,5.727,0,0,0-6.1611-.2978,2.6405,2.6405,0,0,0,.3725,4.41,20.3961,20.3961,0,0,0,4.3228,1.5967,34.6018,34.6018,0,0,1,4.9194,1.6773,8.7832,8.7832,0,0,1,3.3535,2.6787,7.7855,7.7855,0,0,1,1.4658,4.789,8.452,8.452,0,0,1-1.3164,4.6543,8.8376,8.8376,0,0,1-3.7763,3.22,13.2936,13.2936,0,0,1-5.7388,1.163A13.5,13.5,0,0,1,185.5381,236.46Z" transform="translate(-12.9284 -123.0605)"/><path class="cls-2" d="M216.2446,213.5425v14.5029a3.0232,3.0232,0,0,0,.6709,2.1914,3.1045,3.1045,0,0,0,2.2608.6763h3.23v6.3857h-4.3725q-8.795,0-8.7949-9.3076V213.5425H205.96v-6.2232h3.2793v-7.4135h7.0058v7.4135h6.1616v6.2232Z" transform="translate(-12.9284 -123.0605)"/><path class="cls-2" d="M252.8145,224.582H232.6909a7.7554,7.7554,0,0,0,2.0869,5.0865,6.1407,6.1407,0,0,0,4.5215,1.84,5.648,5.648,0,0,0,5.5156-3.626h7.5035a13.7171,13.7171,0,0,1-4.5718,7.1162,12.6084,12.6084,0,0,1-8.2979,2.7866,13.4294,13.4294,0,0,1-7.13-1.9209,13.0307,13.0307,0,0,1-4.919-5.4384,17.8694,17.8694,0,0,1-1.7641-8.1172,18.2125,18.2125,0,0,1,1.7392-8.1714,12.76,12.76,0,0,1,4.8692-5.4111,14.5014,14.5014,0,0,1,14.2353-.0542,12.4758,12.4758,0,0,1,4.8208,5.2221,16.9481,16.9481,0,0,1,1.7139,7.7652A19.3965,19.3965,0,0,1,252.8145,224.582Zm-7.0064-5.0869a6.2458,6.2458,0,0,0-1.9375-4.6806,6.5325,6.5325,0,0,0-4.6211-1.7588,6.013,6.013,0,0,0-4.3476,1.7046,7.7485,7.7485,0,0,0-2.1612,4.7348Z" transform="translate(-12.9284 -123.0605)"/><path class="cls-2" d="M268.54,208.2393a9.128,9.128,0,0,1,4.9444-1.3526v7.9546h-1.8389a6.6776,6.6776,0,0,0-4.9443,1.6777q-1.6641,1.678-1.6641,5.8443v14.9355h-6.956V207.3193h6.956v4.6538A10.2339,10.2339,0,0,1,268.54,208.2393Z" transform="translate(-12.9284 -123.0605)"/><path class="cls-2" d="M301.3584,210.2686q3.0292,3.3829,3.03,9.4428v17.5874h-6.9561V220.74a8.2229,8.2229,0,0,0-1.64-5.4926,5.5737,5.5737,0,0,0-4.4717-1.9209,5.7052,5.7052,0,0,0-4.5469,1.9209,8.1436,8.1436,0,0,0-1.664,5.4926v16.5591h-6.9561V207.3193H285.11v3.7339a9.7833,9.7833,0,0,1,3.5527-3.0571,10.9176,10.9176,0,0,1,12.6953,2.2725Z" transform="translate(-12.9284 -123.0605)"/><path class="cls-2" d="M127.9009,270.5791V280.05h11.6767v6.0059H127.9009v10.0117h13.167v6.1689H120.9443V264.41h20.1236v6.1689Z" transform="translate(-12.9284 -123.0605)"/><path class="cls-2" d="M162.5825,302.2363l-5.6645-9.3076L151.9,302.2363h-7.4531l8.9931-15.0439-9.0927-14.9356h7.8506l5.6147,9.2539,5.0684-9.2539h7.4531l-9.0435,14.9356,9.1426,15.0439Z" transform="translate(-12.9284 -123.0605)"/><path class="cls-2" d="M184.8672,273.1494a10.4789,10.4789,0,0,1,5.3911-1.38,11.3045,11.3045,0,0,1,6.3848,1.8946,12.9793,12.9793,0,0,1,4.5215,5.3838,18.6029,18.6029,0,0,1,1.6645,8.0908,18.9535,18.9535,0,0,1-1.6645,8.1435,13.3092,13.3092,0,0,1-4.5215,5.4932,11.0794,11.0794,0,0,1-6.3848,1.9482,10.3778,10.3778,0,0,1-5.3413-1.3535,11.7339,11.7339,0,0,1-3.7515-3.4092v18.5616H174.209V272.2568h6.9565v4.3291A10.8778,10.8778,0,0,1,184.8672,273.1494Zm9.8384,9.3076a7.4258,7.4258,0,0,0-2.6836-3.0029,6.7367,6.7367,0,0,0-3.6021-1.0283,6.514,6.514,0,0,0-3.5527,1.0556,7.5724,7.5724,0,0,0-2.6831,3.0577,11.3872,11.3872,0,0,0,0,9.415,7.5655,7.5655,0,0,0,2.6831,3.0576,6.5214,6.5214,0,0,0,7.1548-.0263,7.7937,7.7937,0,0,0,2.6836-3.085,10.3927,10.3927,0,0,0,1.0185-4.7617A10.106,10.106,0,0,0,194.7056,282.457Z" transform="translate(-12.9284 -123.0605)"/><path class="cls-2" d="M214.8535,262.1914v40.0449H207.897V262.1914Z" transform="translate(-12.9284 -123.0605)"/><path class="cls-2" d="M226.7783,300.8027a13.32,13.32,0,0,1-4.9936-5.4384,17.4619,17.4619,0,0,1-1.8135-8.1172,17.0826,17.0826,0,0,1,1.8633-8.1172,13.5458,13.5458,0,0,1,5.0927-5.4385,14.4648,14.4648,0,0,1,14.4092,0A13.5483,13.5483,0,0,1,246.43,279.13a17.0826,17.0826,0,0,1,1.8633,8.1172,16.7311,16.7311,0,0,1-1.9131,8.1172,13.8413,13.8413,0,0,1-5.168,5.4384,14.0533,14.0533,0,0,1-7.2793,1.9209A13.5661,13.5661,0,0,1,226.7783,300.8027Zm10.7075-5.6826a7.0362,7.0362,0,0,0,2.6582-3.0029,10.8744,10.8744,0,0,0,.9942-4.87q0-4.2744-2.0625-6.5752a6.5184,6.5184,0,0,0-5.043-2.3,6.3711,6.3711,0,0,0-4.9936,2.3q-2.0119,2.3-2.0122,6.5752t1.9624,6.5742a6.222,6.222,0,0,0,4.9438,2.3A6.7731,6.7731,0,0,0,237.4858,295.12Z" transform="translate(-12.9284 -123.0605)"/><path class="cls-2" d="M263.87,273.1768a9.128,9.128,0,0,1,4.9444-1.3526v7.9551h-1.8389a6.6814,6.6814,0,0,0-4.9444,1.6768q-1.6639,1.6787-1.664,5.8447v14.9355h-6.9561v-29.98h6.9561v4.6543A10.2276,10.2276,0,0,1,263.87,273.1768Z" transform="translate(-12.9284 -123.0605)"/><path class="cls-2" d="M273.36,279.0752a12.9357,12.9357,0,0,1,4.5214-5.4111,11.3,11.3,0,0,1,6.3848-1.8946,10.48,10.48,0,0,1,5.3906,1.3535,11.2539,11.2539,0,0,1,3.7022,3.4092v-4.2754h7.0058v29.98h-7.0058v-4.3828a10.6562,10.6562,0,0,1-9.1426,4.87,10.9953,10.9953,0,0,1-6.335-1.9482,13.2975,13.2975,0,0,1-4.5214-5.4932,18.9374,18.9374,0,0,1-1.6651-8.1435A18.6336,18.6336,0,0,1,273.36,279.0752Zm19.0048,3.4365a7.3927,7.3927,0,0,0-2.6826-3.03,6.7243,6.7243,0,0,0-3.6279-1.0556,6.613,6.613,0,0,0-3.5772,1.0283,7.4893,7.4893,0,0,0-2.6582,3.0029,10.0873,10.0873,0,0,0-1.0185,4.6817,10.4148,10.4148,0,0,0,1.0185,4.7343,7.7468,7.7468,0,0,0,2.6827,3.1124,6.4037,6.4037,0,0,0,3.5527,1.082,6.7244,6.7244,0,0,0,3.6279-1.0557,7.3858,7.3858,0,0,0,2.6826-3.03,11.7719,11.7719,0,0,0,0-9.47Z" transform="translate(-12.9284 -123.0605)"/><path class="cls-2" d="M315.2705,278.4805v14.5019a3.0254,3.0254,0,0,0,.6709,2.1924,3.1067,3.1067,0,0,0,2.2607.6758h3.23v6.3857H317.06q-8.7949,0-8.795-9.3076V278.4805h-3.2792v-6.2237h3.2792v-7.414h7.0059v7.414h6.1611v6.2237Z" transform="translate(-12.9284 -123.0605)"/><path class="cls-2" d="M326.9219,267.4141a4.7273,4.7273,0,0,1,0-6.3321,4.3074,4.3074,0,0,1,6.1113,0,4.7245,4.7245,0,0,1,0,6.3321,4.3076,4.3076,0,0,1-6.1113,0Zm6.4843,4.8427v29.98H326.45v-29.98Z" transform="translate(-12.9284 -123.0605)"/><path class="cls-2" d="M345.3311,300.8027a13.318,13.318,0,0,1-4.9932-5.4384,17.4557,17.4557,0,0,1-1.8135-8.1172,17.0826,17.0826,0,0,1,1.8633-8.1172,13.5454,13.5454,0,0,1,5.0928-5.4385,14.4647,14.4647,0,0,1,14.4091,0,13.5477,13.5477,0,0,1,5.0938,5.4385,17.0826,17.0826,0,0,1,1.8633,8.1172,16.7311,16.7311,0,0,1-1.9131,8.1172,13.8406,13.8406,0,0,1-5.168,5.4384,14.0533,14.0533,0,0,1-7.2793,1.9209A13.5688,13.5688,0,0,1,345.3311,300.8027Zm10.708-5.6826a7.0375,7.0375,0,0,0,2.6582-3.0029,10.8758,10.8758,0,0,0,.9941-4.87q0-4.2744-2.0625-6.5752a6.5184,6.5184,0,0,0-5.043-2.3,6.3687,6.3687,0,0,0-4.9931,2.3q-2.0127,2.3-2.0127,6.5752t1.9629,6.5742a6.22,6.22,0,0,0,4.9433,2.3A6.7749,6.7749,0,0,0,356.0391,295.12Z" transform="translate(-12.9284 -123.0605)"/><path class="cls-2" d="M395.168,275.2061q3.0292,3.3822,3.03,9.4433v17.5869h-6.956V285.6777a8.222,8.222,0,0,0-1.64-5.4931,5.5718,5.5718,0,0,0-4.4716-1.9209,5.7036,5.7036,0,0,0-4.5469,1.9209,8.1433,8.1433,0,0,0-1.6641,5.4931v16.5586h-6.956v-29.98h6.956v3.7344a9.7812,9.7812,0,0,1,3.5528-3.0576,10.9176,10.9176,0,0,1,12.6953,2.2725Z" transform="translate(-12.9284 -123.0605)"/><path class="cls-2" d="M409.2783,301.3975a10.8892,10.8892,0,0,1-4.248-3.5987,9.62,9.62,0,0,1-1.7149-5.0322h7.0059a4.24,4.24,0,0,0,1.5654,2.8682,5.1467,5.1467,0,0,0,3.4033,1.1357,4.9609,4.9609,0,0,0,3.1055-.8652,2.6842,2.6842,0,0,0,1.1182-2.2188,2.35,2.35,0,0,0-1.3662-2.1924,24.3921,24.3921,0,0,0-4.3477-1.5957,34.5665,34.5665,0,0,1-5.043-1.6777,8.8162,8.8162,0,0,1-3.3789-2.6514,7.5388,7.5388,0,0,1-1.416-4.8164,8.261,8.261,0,0,1,1.3164-4.5459,9.0181,9.0181,0,0,1,3.7764-3.247,13.1632,13.1632,0,0,1,5.7891-1.19,11.1927,11.1927,0,0,1,7.8505,2.6787,10.2755,10.2755,0,0,1,3.23,7.2247h-6.6582a4.0443,4.0443,0,0,0-1.3662-2.8409,5.7271,5.7271,0,0,0-6.1611-.2978,2.64,2.64,0,0,0,.3721,4.41,20.3774,20.3774,0,0,0,4.3232,1.5967,34.5462,34.5462,0,0,1,4.9189,1.6778,8.77,8.77,0,0,1,3.3536,2.6787,7.783,7.783,0,0,1,1.4658,4.789,8.4483,8.4483,0,0,1-1.3164,4.6533,8.8282,8.8282,0,0,1-3.7764,3.22,13.2922,13.2922,0,0,1-5.7393,1.164A13.502,13.502,0,0,1,409.2783,301.3975Z" transform="translate(-12.9284 -123.0605)"/></svg>